<?xml version="1.0" encoding="UTF-8"?>
<svg version="1.1" xmlns="http://www.w3.org/2000/svg" width="443" height="154">
<path d="M0 0 C0.92035034 -0.00191345 1.84070068 -0.0038269 2.78894043 -0.00579834 C4.72176387 -0.00715054 6.6545967 -0.0035221 8.58740234 0.00488281 C11.52332215 0.01559607 14.45863017 0.00495442 17.39453125 -0.0078125 C19.2838555 -0.00649073 21.17317937 -0.00392799 23.0625 0 C24.36133118 -0.00607269 24.36133118 -0.00607269 25.68640137 -0.01226807 C35.7175225 0.06381735 44.36660682 1.7804049 51.7578125 8.9375 C56.88623713 14.64697767 60.11778093 20.67394199 60.19238281 28.43237305 C60.20199036 29.24389328 60.2115979 30.05541351 60.22149658 30.89152527 C60.22574646 31.76134537 60.22999634 32.63116547 60.234375 33.52734375 C60.24007507 34.43257278 60.24577515 35.33780182 60.25164795 36.27046204 C60.26108573 38.18607418 60.26762708 40.10170247 60.27148438 42.01733398 C60.28115732 44.92526201 60.31217875 47.83247308 60.34375 50.74023438 C60.35028401 52.60676666 60.35553292 54.47330398 60.359375 56.33984375 C60.3717218 57.19954269 60.3840686 58.05924164 60.39678955 58.94499207 C60.36475585 67.77538168 58.22324784 74.9708416 52.13671875 81.47265625 C46.72069005 86.08482169 39.71156762 89.39918331 32.55981445 89.37915039 C31.20875359 89.37903709 31.20875359 89.37903709 29.83039856 89.37892151 C28.86156235 89.37376022 27.89272614 89.36859894 26.89453125 89.36328125 C25.40266548 89.36115883 25.40266548 89.36115883 23.88066101 89.35899353 C20.70166018 89.35339261 17.52272957 89.34083996 14.34375 89.328125 C12.18945414 89.32311012 10.03515718 89.31854719 7.88085938 89.31445312 C2.59760737 89.30427345 -2.68549262 89.28469813 -7.96875 89.265625 C-7.96875 82.335625 -7.96875 75.405625 -7.96875 68.265625 C-5.05546875 68.20503906 -2.1421875 68.14445312 0.859375 68.08203125 C3.6824801 68.02021398 6.5055462 67.95683782 9.32861328 67.89331055 C11.28984096 67.8500124 13.2511051 67.80833369 15.21240234 67.76831055 C18.03233828 67.71048401 20.85209161 67.64682516 23.671875 67.58203125 C24.54805481 67.56531876 25.42423462 67.54860626 26.32696533 67.53138733 C27.14751404 67.51144211 27.96806274 67.49149689 28.81347656 67.47094727 C29.89269379 67.44763084 29.89269379 67.44763084 30.99371338 67.42384338 C33.10071646 67.2602308 34.99960737 66.83562969 37.03125 66.265625 C37.8891436 61.81556817 38.15992758 57.60342975 38.1640625 53.07421875 C38.16549759 52.07262474 38.16549759 52.07262474 38.16696167 51.05079651 C38.1676382 49.64820257 38.16582094 48.2456054 38.16162109 46.84301758 C38.15625676 44.70582003 38.16158834 42.5688318 38.16796875 40.43164062 C38.16730804 39.06249954 38.16602703 37.69335858 38.1640625 36.32421875 C38.16237061 34.47268188 38.16237061 34.47268188 38.16064453 32.58374023 C38.04731184 29.67750522 37.70503805 27.08690338 37.03125 24.265625 C34.15109891 23.44341695 31.59306822 23.13935916 28.6015625 23.13623047 C27.7338623 23.13307831 26.86616211 23.12992615 25.97216797 23.12667847 C24.57828857 23.12971481 24.57828857 23.12971481 23.15625 23.1328125 C22.19477051 23.13185577 21.23329102 23.13089905 20.24267578 23.12991333 C18.2119134 23.1292335 16.18114882 23.13107407 14.15039062 23.13525391 C11.04291907 23.14060491 7.93559206 23.13530224 4.828125 23.12890625 C2.85416635 23.12956707 0.88020779 23.1308483 -1.09375 23.1328125 C-2.02300293 23.13078827 -2.95225586 23.12876404 -3.90966797 23.12667847 C-5.21121826 23.13140671 -5.21121826 23.13140671 -6.5390625 23.13623047 C-7.29977051 23.13702606 -8.06047852 23.13782166 -8.84423828 23.13864136 C-10.99905026 23.26743607 -12.89706601 23.67421323 -14.96875 24.265625 C-16.09571348 28.79885829 -16.14087834 33.2692802 -16.17407227 37.91137695 C-16.18892166 39.19994347 -16.18892166 39.19994347 -16.20407104 40.51454163 C-16.23557213 43.34430213 -16.26039832 46.17407939 -16.28515625 49.00390625 C-16.30573562 50.96974617 -16.32673235 52.93558177 -16.34812927 54.90141296 C-16.40324842 60.06837452 -16.45270241 65.23537534 -16.50097656 70.40240479 C-16.55126584 75.67781049 -16.6069131 80.95315938 -16.66210938 86.22851562 C-16.76956671 96.57417195 -16.87054386 106.91987671 -16.96875 117.265625 C-23.89875 117.265625 -30.82875 117.265625 -37.96875 117.265625 C-38.03660526 105.14771951 -38.09161211 93.02994083 -38.12418652 80.91188812 C-38.13982287 75.28461125 -38.16102423 69.65747144 -38.19506836 64.03027344 C-38.22773395 58.5967525 -38.24561829 53.16336316 -38.25338173 47.72975159 C-38.25891229 45.65977406 -38.26971212 43.5898035 -38.28594017 41.5198822 C-38.30780996 38.61400959 -38.31071291 35.70867643 -38.30932617 32.80273438 C-38.320112 31.95252716 -38.33089783 31.10231995 -38.3420105 30.22634888 C-38.29540655 21.1640155 -35.36869709 14.84921398 -29.140625 8.24609375 C-21.08580053 0.9011369 -10.46485217 -0.04892848 0 0 Z " fill="#FDFDFD" transform="translate(266.96875,36.734375)"/>
<path d="M0 0 C0.92035034 -0.00191345 1.84070068 -0.0038269 2.78894043 -0.00579834 C4.72176387 -0.00715054 6.6545967 -0.0035221 8.58740234 0.00488281 C11.52332215 0.01559607 14.45863017 0.00495442 17.39453125 -0.0078125 C19.2838555 -0.00649073 21.17317937 -0.00392799 23.0625 0 C24.36133118 -0.00607269 24.36133118 -0.00607269 25.68640137 -0.01226807 C35.8022197 0.06445978 44.09286813 1.88953795 51.72265625 8.796875 C60.8888385 18.53737945 60.63792286 29.85590104 60.49780273 42.4699707 C60.46878205 45.32497152 60.4772333 48.17811706 60.49023438 51.03320312 C60.48399701 52.87240473 60.47560608 54.71160056 60.46484375 56.55078125 C60.46777939 57.39165787 60.47071503 58.23253448 60.47373962 59.09889221 C60.33644897 67.84358172 58.16357683 75.03458397 52.13671875 81.47265625 C46.72069005 86.08482169 39.71156762 89.39918331 32.55981445 89.37915039 C31.20875359 89.37903709 31.20875359 89.37903709 29.83039856 89.37892151 C28.86156235 89.37376022 27.89272614 89.36859894 26.89453125 89.36328125 C25.40266548 89.36115883 25.40266548 89.36115883 23.88066101 89.35899353 C20.70166018 89.35339261 17.52272957 89.34083996 14.34375 89.328125 C12.18945414 89.32311012 10.03515718 89.31854719 7.88085938 89.31445312 C2.59760737 89.30427345 -2.68549262 89.28469813 -7.96875 89.265625 C-7.96875 82.335625 -7.96875 75.405625 -7.96875 68.265625 C-5.05546875 68.20503906 -2.1421875 68.14445312 0.859375 68.08203125 C3.6824801 68.02021398 6.5055462 67.95683782 9.32861328 67.89331055 C11.28984096 67.8500124 13.2511051 67.80833369 15.21240234 67.76831055 C18.03233828 67.71048401 20.85209161 67.64682516 23.671875 67.58203125 C24.54805481 67.56531876 25.42423462 67.54860626 26.32696533 67.53138733 C27.14751404 67.51144211 27.96806274 67.49149689 28.81347656 67.47094727 C29.89269379 67.44763084 29.89269379 67.44763084 30.99371338 67.42384338 C33.10071646 67.2602308 34.99960737 66.83562969 37.03125 66.265625 C37.8891436 61.81556817 38.15992758 57.60342975 38.1640625 53.07421875 C38.16549759 52.07262474 38.16549759 52.07262474 38.16696167 51.05079651 C38.1676382 49.64820257 38.16582094 48.2456054 38.16162109 46.84301758 C38.15625676 44.70582003 38.16158834 42.5688318 38.16796875 40.43164062 C38.16730804 39.06249954 38.16602703 37.69335858 38.1640625 36.32421875 C38.16237061 34.47268188 38.16237061 34.47268188 38.16064453 32.58374023 C38.04731184 29.67750522 37.70503805 27.08690338 37.03125 24.265625 C34.15109891 23.44341695 31.59306822 23.13935916 28.6015625 23.13623047 C27.7338623 23.13307831 26.86616211 23.12992615 25.97216797 23.12667847 C24.57828857 23.12971481 24.57828857 23.12971481 23.15625 23.1328125 C22.19477051 23.13185577 21.23329102 23.13089905 20.24267578 23.12991333 C18.2119134 23.1292335 16.18114882 23.13107407 14.15039062 23.13525391 C11.04291907 23.14060491 7.93559206 23.13530224 4.828125 23.12890625 C2.85416635 23.12956707 0.88020779 23.1308483 -1.09375 23.1328125 C-2.02300293 23.13078827 -2.95225586 23.12876404 -3.90966797 23.12667847 C-5.21121826 23.13140671 -5.21121826 23.13140671 -6.5390625 23.13623047 C-7.29977051 23.13702606 -8.06047852 23.13782166 -8.84423828 23.13864136 C-10.99905026 23.26743607 -12.89706601 23.67421323 -14.96875 24.265625 C-16.09571348 28.79885829 -16.14087834 33.2692802 -16.17407227 37.91137695 C-16.18892166 39.19994347 -16.18892166 39.19994347 -16.20407104 40.51454163 C-16.23557213 43.34430213 -16.26039832 46.17407939 -16.28515625 49.00390625 C-16.30573562 50.96974617 -16.32673235 52.93558177 -16.34812927 54.90141296 C-16.40324842 60.06837452 -16.45270241 65.23537534 -16.50097656 70.40240479 C-16.55126584 75.67781049 -16.6069131 80.95315938 -16.66210938 86.22851562 C-16.76956671 96.57417195 -16.87054386 106.91987671 -16.96875 117.265625 C-23.89875 117.265625 -30.82875 117.265625 -37.96875 117.265625 C-38.03660526 105.14771951 -38.09161211 93.02994083 -38.12418652 80.91188812 C-38.13982287 75.28461125 -38.16102423 69.65747144 -38.19506836 64.03027344 C-38.22773395 58.5967525 -38.24561829 53.16336316 -38.25338173 47.72975159 C-38.25891229 45.65977406 -38.26971212 43.5898035 -38.28594017 41.5198822 C-38.30780996 38.61400959 -38.31071291 35.70867643 -38.30932617 32.80273438 C-38.320112 31.95252716 -38.33089783 31.10231995 -38.3420105 30.22634888 C-38.29540655 21.1640155 -35.36869709 14.84921398 -29.140625 8.24609375 C-21.08580053 0.9011369 -10.46485217 -0.04892848 0 0 Z " fill="#FDFDFD" transform="translate(382.96875,36.734375)"/>
<path d="M0 0 C-1.51876738 3.18941149 -3.08940757 5.33246836 -5.625 7.8125 C-6.57246094 8.75029297 -6.57246094 8.75029297 -7.5390625 9.70703125 C-9.54784301 11.57870452 -11.58821736 13.37342149 -13.66918945 15.16259766 C-17.87633512 18.83835546 -21.82968204 22.71773581 -25.75390625 26.69140625 C-26.45845444 27.39974106 -27.16300262 28.10807587 -27.88890076 28.83787537 C-30.11590762 31.07697606 -32.33961704 33.3193057 -34.5625 35.5625 C-37.49833707 38.52509891 -40.43758395 41.4842542 -43.37890625 44.44140625 C-44.03951553 45.11031387 -44.70012482 45.7792215 -45.38075256 46.46839905 C-49.42480138 50.53350677 -53.60009023 54.32198096 -58 58 C-57.14722262 62.40541226 -55.15751475 63.97051931 -51.765625 66.921875 C-47.17691484 70.99086698 -42.74008633 75.16021259 -38.421875 79.515625 C-37.87398315 80.06690063 -37.32609131 80.61817627 -36.76159668 81.18615723 C-35.08894933 82.87202611 -33.41902726 84.56054758 -31.75 86.25 C-22.49092033 95.65952578 -22.49092033 95.65952578 -12.71191406 104.51953125 C-10.01476708 106.85203258 -7.51799068 109.3500149 -5 111.875 C-4.51144531 112.3596875 -4.02289063 112.844375 -3.51953125 113.34375 C0 116.87313988 0 116.87313988 0 118 C-26.33302438 121.98635831 -26.33302438 121.98635831 -36.14337158 114.89969826 C-42.82247174 109.4447368 -48.47612442 102.82536374 -54.04168701 96.27087402 C-57.90761989 91.74203875 -61.89961911 87.32855183 -65.93138123 82.94743156 C-67.30507419 81.4218582 -68.6176534 79.85771003 -69.92980957 78.27919006 C-74.26163462 73.4257829 -77.4222883 70.6375996 -83.90657043 69.93240166 C-86.9358474 69.82369189 -89.9694902 69.93406757 -93 70 C-93 63.07 -93 56.14 -93 49 C-90.75002197 49.05357666 -88.50004395 49.10715332 -86.18188477 49.16235352 C-80.20638893 48.95189757 -76.77812374 47.77778298 -72.36694336 43.48022461 C-71.04103968 42.00393225 -69.71604722 40.52580314 -68.44160271 39.00486565 C-67.04914325 37.35409295 -65.60681806 35.76419388 -64.14125061 34.17811584 C-59.99367495 29.67459114 -55.92883139 25.1036283 -51.94702148 20.45288086 C-35.96485056 1.88500182 -24.7635416 -3.98905412 0 0 Z " fill="#FAFAFA" transform="translate(123,8)"/>
<path d="M0 0 C7.26 0 14.52 0 22 0 C22.01458252 3.01358643 22.02916504 6.02717285 22.04418945 9.13208008 C22.0944643 19.07472633 22.16104659 29.0172148 22.23571491 38.95970631 C22.28049513 44.98948145 22.31973435 51.01918781 22.34643555 57.04907227 C22.37239219 62.86524611 22.41274023 68.68115638 22.46318626 74.49716759 C22.47990678 76.71915096 22.49138864 78.94117998 22.49761391 81.16321754 C22.50719865 84.26900674 22.53519041 87.3741137 22.56762695 90.47973633 C22.56547432 91.86616837 22.56547432 91.86616837 22.5632782 93.28060913 C22.58208542 94.54891823 22.58208542 94.54891823 22.60127258 95.84284973 C22.60588155 96.57751874 22.61049051 97.31218775 22.61523914 98.06911945 C23.11446886 100.57444953 24.00897946 101.43997907 26 103 C29.00778521 104.00259507 31.53820647 104.30314642 34.6875 104.5625 C36.440625 104.706875 38.19375 104.85125 40 105 C40 111.93 40 118.86 40 126 C17.16572935 126.72489748 17.16572935 126.72489748 7.53515625 117.77734375 C2.71825716 112.20052673 -0.12924764 105.98306776 -0.12025452 98.60870361 C-0.12162918 97.73654709 -0.12300385 96.86439056 -0.12442017 95.96580505 C-0.12082489 95.01706009 -0.11722961 94.06831512 -0.11352539 93.09082031 C-0.11367142 92.08561844 -0.11381744 91.08041656 -0.1139679 90.04475403 C-0.11327128 86.72252239 -0.10549058 83.40034684 -0.09765625 80.078125 C-0.09579118 77.77455679 -0.0943677 75.47098818 -0.09336853 73.16741943 C-0.08955037 67.10442001 -0.07972604 61.04144455 -0.06866455 54.97845459 C-0.05843538 48.79162927 -0.05386768 42.60480009 -0.04882812 36.41796875 C-0.03810317 24.27863362 -0.02051201 12.13932255 0 0 Z " fill="#FAFAFA" transform="translate(134,0)"/>
<path d="M0 0 C6.93 0 13.86 0 21 0 C21 38.94 21 77.88 21 118 C13.74 118 6.48 118 -1 118 C-1.02254755 102.76236668 -1.04097948 87.52474084 -1.05181217 72.28709507 C-1.056975 65.21246813 -1.06401744 58.13785226 -1.07543945 51.06323242 C-1.08644681 44.24221122 -1.09227618 37.42120156 -1.09487724 30.60017204 C-1.09673205 27.99133052 -1.1003537 25.38248967 -1.10573006 22.77365303 C-1.11293643 19.13367448 -1.11399111 15.49374425 -1.11352539 11.85375977 C-1.11712067 10.76331863 -1.12071594 9.6728775 -1.12442017 8.5493927 C-1.1230455 7.56356201 -1.12167084 6.57773132 -1.12025452 5.56202698 C-1.12117631 4.70015054 -1.1220981 3.8382741 -1.12304783 2.95028019 C-1 1 -1 1 0 0 Z " fill="#F9F9F9" transform="translate(1,8)"/>
<path d="M0 0 C6.93 0 13.86 0 21 0 C21 29.37 21 58.74 21 89 C13.74 89 6.48 89 -1 89 C-1.02255012 77.54349633 -1.04091456 66.08700729 -1.05181217 54.63048649 C-1.05704122 49.31134787 -1.06413927 43.99222516 -1.07543945 38.6730957 C-1.08626755 33.54436015 -1.09227667 28.41563994 -1.09487724 23.28689384 C-1.09673163 21.32558386 -1.10035251 19.36427476 -1.10573006 17.40297127 C-1.11293946 14.66584553 -1.11399099 11.92878403 -1.11352539 9.19165039 C-1.11712067 8.37238068 -1.12071594 7.55311096 -1.12442017 6.70901489 C-1.11405216 1.11405216 -1.11405216 1.11405216 0 0 Z " fill="#F9F9F9" transform="translate(188,37)"/>
<path d="M0 0 C7.26 0 14.52 0 22 0 C22 6.27 22 12.54 22 19 C14.74 19 7.48 19 0 19 C0 12.73 0 6.46 0 0 Z " fill="#F9F9FA" transform="translate(187,0)"/>
</svg>
