<?xml version="1.0" standalone="no"?>
<!DOCTYPE svg PUBLIC "-//W3C//DTD SVG 20010904//EN"
 "http://www.w3.org/TR/2001/REC-SVG-20010904/DTD/svg10.dtd">
<svg version="1.0" xmlns="http://www.w3.org/2000/svg"
 width="443.000000pt" height="154.000000pt" viewBox="0 0 443.000000 154.000000"
 preserveAspectRatio="xMidYMid meet">

<g transform="translate(0.000000,154.000000) scale(0.100000,-0.100000)"
fill="#000000" stroke="none">
<path d="M0 1498 l0 -43 107 0 108 0 3 -587 2 -588 -110 0 -110 0 0 -140 0
-140 1145 0 1145 0 0 463 c0 519 0 520 70 600 24 27 63 55 102 73 l63 29 250
0 c214 0 257 -3 301 -18 67 -23 128 -77 162 -141 l27 -51 0 -235 c0 -231 0
-236 -25 -284 -31 -61 -88 -110 -157 -136 -48 -18 -78 -20 -273 -20 l-220 0 0
105 0 105 200 0 c127 0 208 4 224 11 38 18 46 58 46 226 0 167 -9 205 -52 217
-30 8 -426 8 -456 0 -50 -14 -52 -29 -52 -504 l0 -440 475 0 475 0 0 463 c0
519 0 520 70 600 24 27 63 55 102 73 l63 29 250 0 c214 0 257 -3 301 -18 87
-30 156 -104 185 -197 4 -14 8 113 8 283 l1 307 -1170 0 -1170 0 0 -95 0 -95
-105 0 -105 0 0 95 0 95 -160 0 -160 0 0 -494 c0 -272 3 -502 6 -511 10 -26
59 -45 119 -45 l55 0 0 -106 0 -106 -97 4 c-84 3 -105 8 -150 32 -53 29 -95
74 -129 136 -18 33 -19 66 -22 563 l-3 527 -669 0 -670 0 0 -42z m1228 -47
c-1 -5 -133 -136 -293 -291 -159 -156 -290 -288 -290 -295 0 -7 132 -140 293
-296 l293 -284 -153 -3 -152 -3 -235 241 -236 240 -77 0 -78 0 0 105 0 105 73
0 73 0 244 245 244 245 149 0 c83 0 147 -4 145 -9z m862 -726 l0 -445 -110 0
-110 0 0 438 c0 241 3 442 7 445 3 4 53 7 110 7 l103 0 0 -445z"/>
<path d="M3707 943 c-45 -12 -47 -36 -47 -503 l0 -440 385 0 385 0 -1 258 c0
141 -4 246 -8 232 -29 -92 -89 -156 -179 -190 -47 -18 -78 -20 -272 -20 l-220
0 0 105 0 105 200 0 c127 0 208 4 224 11 38 18 46 58 46 226 0 167 -9 205 -52
217 -26 7 -434 6 -461 -1z"/>
</g>
</svg>
