<?xml version="1.0" encoding="UTF-8"?>
<svg version="1.1" xmlns="http://www.w3.org/2000/svg" width="392" height="154">
<path d="M0 0 C2.1478277 -0.00217931 4.29513415 -0.0203806 6.44287109 -0.03930664 C33.15560544 -0.15049388 33.15560544 -0.15049388 42.84521484 9.00952148 C49.73825811 16.28868958 51.38129721 23.48748051 51.34912109 33.23999023 C51.35436295 34.1815799 51.3596048 35.12316956 51.36500549 36.09329224 C51.37139678 38.07496154 51.37012643 40.05666893 51.36157227 42.03833008 C51.35307047 45.04505066 51.38185143 48.0498634 51.41357422 51.05639648 C51.4151869 52.99259384 51.41460742 54.92879451 51.41162109 56.86499023 C51.42285507 57.75072723 51.43408905 58.63646423 51.44566345 59.54904175 C51.35720759 67.60483975 49.23591269 74.81649394 43.91552734 80.99780273 C32.46792492 91.09218366 18.97667087 89.79469118 4.66552734 89.49780273 C2.55227258 89.47267967 0.43898894 89.44987361 -1.67431641 89.42944336 C-6.81234264 89.37907055 -11.94629742 89.28116421 -17.08447266 89.18530273 C-17.08447266 82.25530273 -17.08447266 75.32530273 -17.08447266 68.18530273 C-14.09900391 68.15952148 -11.11353516 68.13374023 -8.03759766 68.10717773 C-5.14492375 68.06876086 -2.25242832 68.02359947 0.64013672 67.9777832 C2.64981562 67.94956466 4.65960569 67.92835453 6.66943359 67.91430664 C9.55933584 67.89288938 12.44790025 67.8462457 15.33740234 67.79467773 C16.68448273 67.79283478 16.68448273 67.79283478 18.05877686 67.79095459 C21.78885134 67.70345206 24.23179176 67.58892015 27.48095703 65.67089844 C29.53009558 62.12047646 29.48822114 58.79507858 29.44677734 54.80639648 C29.45060425 53.99791763 29.45443115 53.18943878 29.45837402 52.35646057 C29.46109096 50.65103914 29.45374495 48.94557588 29.43701172 47.24023438 C29.41556904 44.62788294 29.43683286 42.01827271 29.46240234 39.40600586 C29.45975957 37.74779666 29.45463564 36.08958917 29.44677734 34.43139648 C29.45487427 33.65009872 29.46297119 32.86880096 29.47131348 32.06382751 C29.4792221 27.82321956 29.4792221 27.82321956 27.16577148 24.47798157 C24.6452024 23.03001144 23.27574729 22.81536225 20.39404297 22.82885742 C19.50632202 22.82585632 18.61860107 22.82285522 17.70397949 22.81976318 C16.27728943 22.83828339 16.27728943 22.83828339 14.82177734 22.85717773 C13.83810181 22.8590509 12.85442627 22.86092407 11.84094238 22.862854 C9.76306769 22.86957065 7.68520555 22.88347744 5.60742188 22.90405273 C2.42745197 22.93518599 -0.75202173 22.94502316 -3.93212891 22.95092773 C-5.9516662 22.96009908 -7.97119845 22.97047526 -9.99072266 22.98217773 C-10.94184937 22.98642761 -11.89297607 22.99067749 -12.8729248 22.99505615 C-13.76064575 23.0046637 -14.6483667 23.01427124 -15.56298828 23.02416992 C-16.34146118 23.03099792 -17.11993408 23.03782593 -17.92199707 23.04486084 C-20.41982408 23.14224102 -20.41982408 23.14224102 -24.08447266 24.18530273 C-24.41447266 54.87530273 -24.74447266 85.56530273 -25.08447266 117.18530273 C-32.34447266 117.18530273 -39.60447266 117.18530273 -47.08447266 117.18530273 C-47.15239798 105.49309027 -47.20737498 93.80101005 -47.23990917 82.10864449 C-47.25552826 76.67871868 -47.27669772 71.24893552 -47.31079102 65.8190918 C-47.34351866 60.57359297 -47.3613539 55.32823088 -47.36910439 50.08263779 C-47.37462389 48.08688074 -47.38540188 46.09113071 -47.40166283 44.09543228 C-47.42361543 41.28815101 -47.42643218 38.48142631 -47.42504883 35.67407227 C-47.43583466 34.85910782 -47.44662048 34.04414337 -47.45773315 33.20448303 C-47.40739407 23.69039584 -44.88942273 15.0514209 -38.08447266 8.18530273 C-26.86344532 -0.61682051 -13.59584188 -0.00153764 0 0 Z " fill="#FFFFFF" transform="translate(340.08447265625,36.814697265625)"/>
<path d="M0 0 C1.17915482 -0.01606293 2.35830963 -0.03212585 3.57319641 -0.04867554 C9.00826824 -0.09325065 14.44320625 -0.13469097 19.87841797 -0.15722656 C22.73487014 -0.17047556 25.5905925 -0.19815216 28.44677734 -0.23925781 C31.91162462 -0.28911417 35.37581863 -0.31341323 38.84100914 -0.32045364 C40.78004884 -0.33027949 42.71891777 -0.36440602 44.65766907 -0.39926147 C55.93213702 -0.37278933 66.43767471 2.23335073 74.67260742 10.32958984 C75.51758789 11.25191406 75.51758789 11.25191406 76.37963867 12.19287109 C77.20915039 13.06878906 77.20915039 13.06878906 78.05541992 13.96240234 C85.84522567 23.14393517 86.98085088 34.90647634 86.77026367 46.49365234 C86.76460388 47.6960405 86.75894409 48.89842865 86.75311279 50.13725281 C86.73096257 53.92705397 86.68080585 57.71586221 86.62963867 61.50537109 C86.60954612 64.0958521 86.59130022 66.68634813 86.57495117 69.27685547 C86.53116776 75.58256874 86.46228969 81.88755238 86.37963867 88.19287109 C79.44963867 88.19287109 72.51963867 88.19287109 65.37963867 88.19287109 C65.36505615 86.725354 65.35047363 85.25783691 65.33544922 83.74584961 C65.2772313 78.27197591 65.19999979 72.79850347 65.1171875 67.32495117 C65.08404847 64.96141093 65.05598265 62.59779365 65.03320312 60.23413086 C64.99945444 56.82551415 64.94712739 53.41759646 64.89135742 50.00927734 C64.8849675 48.96203995 64.87857758 47.91480255 64.87199402 46.83583069 C64.7203219 39.17062055 63.93626568 32.35501502 59.00463867 26.25537109 C53.49170493 21.9237803 48.46497555 21.8659611 41.70385742 21.77880859 C40.47294373 21.75234253 40.47294373 21.75234253 39.21716309 21.7253418 C36.16735008 21.66252875 33.11721611 21.61616694 30.06713867 21.56787109 C19.82682617 21.38224609 19.82682617 21.38224609 9.37963867 21.19287109 C9.37963867 43.30287109 9.37963867 65.41287109 9.37963867 88.19287109 C2.44963867 88.19287109 -4.48036133 88.19287109 -11.62036133 88.19287109 C-11.71074476 77.58776637 -11.78412479 66.98291762 -11.82761002 56.37751484 C-11.84848118 51.45294696 -11.87679029 46.52865635 -11.92211914 41.60424805 C-11.9655936 36.85153161 -11.98950198 32.0990818 -11.9998703 27.34618187 C-12.00725879 25.53327423 -12.02168687 23.72038112 -12.04328156 21.90758705 C-12.0723372 19.36735168 -12.07631649 16.82821671 -12.07446289 14.2878418 C-12.08884399 13.53905762 -12.1032251 12.79027344 -12.11804199 12.01879883 C-12.08914985 8.35735499 -11.7251698 6.35494949 -9.71697998 3.24943542 C-6.43678616 0.03190724 -4.49641932 0.05560139 0 0 Z " fill="#FFFFFF" transform="translate(146.620361328125,37.80712890625)"/>
<path d="M0 0 C1.45693306 0.04019126 2.91397315 0.07668214 4.37109375 0.109375 C7.91631158 0.19690362 11.45746226 0.33457978 15 0.5 C12.11396799 4.46829401 8.81826563 7.47639075 5.11889648 10.64331055 C1.68077051 13.65597883 -1.50808711 16.90493831 -4.71875 20.15625 C-5.42092651 20.86221313 -6.12310303 21.56817627 -6.84655762 22.29553223 C-9.06684603 24.52791358 -11.28383955 26.76352111 -13.5 29 C-16.42409479 31.95090378 -19.35163057 34.89833203 -22.28125 37.84375 C-22.936698 38.50749634 -23.592146 39.17124268 -24.26745605 39.85510254 C-28.0969917 43.70458241 -32.0336847 47.34570638 -36.17956543 50.85339355 C-39.096496 53.49179471 -41.5152676 56.45620281 -44 59.5 C-42.50341097 61.02419005 -41.00251195 62.54414831 -39.5 64.0625 C-38.6646875 64.90941406 -37.829375 65.75632812 -36.96875 66.62890625 C-34.88872537 68.68681814 -32.7290836 70.60137269 -30.5 72.49609375 C-23.52953484 78.53765721 -17.18096469 85.26571269 -10.69970703 91.82080078 C-8.93735818 93.60142228 -7.17278878 95.37978545 -5.40625 97.15625 C-4.84107666 97.724646 -4.27590332 98.29304199 -3.69360352 98.87866211 C-0.22042606 102.3477396 3.32161003 105.66593655 7.13867188 108.75976562 C10.01356919 111.44762869 12.47921179 114.48256343 15 117.5 C4.20088784 119.19682433 -8.51416169 121.1120823 -18.4486084 115.57940674 C-25.90902596 110.12036506 -31.95610102 102.77173461 -37.91473389 95.77087402 C-41.78286119 91.24552885 -45.76373997 86.8251162 -49.79756546 82.44743156 C-51.17126753 80.922931 -52.48084523 79.35842802 -53.79086304 77.77919006 C-58.28604417 72.76159134 -61.56699131 70.11647293 -68.26021194 69.43240166 C-71.5050564 69.32341603 -74.75399428 69.43411926 -78 69.5 C-78 62.57 -78 55.64 -78 48.5 C-74.53693359 48.71849609 -74.53693359 48.71849609 -71.00390625 48.94140625 C-62.34139772 48.79416403 -57.79291606 44.84771034 -51.90884399 38.88076782 C-49.89105395 36.75692955 -47.9144894 34.59929546 -45.9375 32.4375 C-44.57971626 31.01288949 -43.21840411 29.5916332 -41.85351562 28.17382812 C-31.53125654 17.47579193 -31.53125654 17.47579193 -22.12890625 5.98632812 C-16.18063114 -1.43789056 -8.66202946 -0.41668941 0 0 Z " fill="#FFFFFF" transform="translate(108,8.5)"/>
<path d="M0 0 C1 1 1 1 1.12304783 2.95028019 C1.12166514 4.24309485 1.12166514 4.24309485 1.12025452 5.56202698 C1.12162918 6.54785767 1.12300385 7.53368835 1.12442017 8.5493927 C1.12082489 9.63983383 1.11722961 10.73027496 1.11352539 11.85375977 C1.11367142 12.99507355 1.11381744 14.13638733 1.1139679 15.31228638 C1.11326818 19.10534531 1.10547307 22.89835584 1.09765625 26.69140625 C1.09579228 29.31314568 1.09436828 31.93488546 1.09336853 34.55662537 C1.09025551 40.76501955 1.08204252 46.97339621 1.07201904 53.18178266 C1.06085699 60.24817441 1.05534722 67.31456699 1.05032361 74.38096535 C1.03985988 88.92065285 1.02206051 103.46032559 1 118 C-5.93 118 -12.86 118 -20 118 C-20 79.39 -20 40.78 -20 1 C-4.4 -0.2 -4.4 -0.2 0 0 Z " fill="#FFFFFF" transform="translate(21,8)"/>
<path d="M0 0 C6.93 0 13.86 0 21 0 C21 29.04 21 58.08 21 88 C14.07 88 7.14 88 0 88 C0 58.96 0 29.92 0 0 Z " fill="#FFFFFF" transform="translate(252,38)"/>
<path d="M0 0 C6.93 0 13.86 0 21 0 C21 6.27 21 12.54 21 19 C14.07 19 7.14 19 0 19 C0 12.73 0 6.46 0 0 Z " fill="#FFFFFF" transform="translate(252,0)"/>
</svg>
